# xmcd
#
# Track frame offsets: 
#        150
#        13540
#        30565
#        47222
#        62177
#        78055
#        93375
#        107352
#        122312
#        139717
#        158565
#        176210
#        191445
#        209760
#        230872
#        245040
#        262830
#        280340
#        298580
#
# Disc length: 4185 seconds
#
# Revision: 2
# Processed by: cddbd v1.5.2PL0 Copyright (c) Steve Scherf et al.
# Submitted via: ExactAudioCopy v1.0b4
#
DISCID=09105713
DTITLE=小柳ルミ子 - 小柳ルミコ BEST ALBUM
DYEAR=1900
DGENRE=歌謡曲
TTITLE0=わたしの城下町
TTITLE1=お祭りの夜
TTITLE2=雪あかりの町
TTITLE3=瀬戸の花嫁
TTITLE4=京のにわか雨
TTITLE5=漁火恋歌
TTITLE6=春のおとずれ
TTITLE7=恋の雪別れ
TTITLE8=冬の駅
TTITLE9=桜前線
TTITLE10=逢いたくて北国へ
TTITLE11=星の砂
TTITLE12=雨・・・
TTITLE13=来夢来人
TTITLE14=ひと雨くれば
TTITLE15=みだれ髪
TTITLE16=お久しぶりね
TTITLE17=今さらジロー
TTITLE18=背中でちょっと I Love You
EXTD=
EXTT0=
EXTT1=
EXTT2=
EXTT3=
EXTT4=
EXTT5=
EXTT6=
EXTT7=
EXTT8=
EXTT9=
EXTT10=
EXTT11=
EXTT12=
EXTT13=
EXTT14=
EXTT15=
EXTT16=
EXTT17=
EXTT18=
PLAYORDER=
